{"title":"Election.2005.DVDRip.XviD-VeraCD","uid":6560379,"size":742638039,"categoryP":"video","categoryS":"movies","magnet":"?xt=urn:btih:103dedd3f148c1b11e7ed275b4743e73b2162263&amp;dn=Election.2005.DVDRip.XviD-VeraCD&amp;tr=udp%3A%2F%2Ftracker.openbittorrent.com%3A80&amp;tr=udp%3A%2F%2Fopen.demonii.com%3A1337&amp;tr=udp%3A%2F%2Ftracker.coppersurfer.tk%3A6969&amp;tr=udp%3A%2F%2Fexodus.desync.com%3A6969","seeders":1,"leechers":0,"uploader":null,"files":-1,"time":1311441710,"description":"MDB                             : http://www.imdb.com/title/tt0434008/\n\nRival gang leaders are locked in a struggle to become the new chairman\nof Hong Kong's Triad society..\n\n-------------------------------------------------------------------------------\n\nFormat                           : AVI\nFormat/Info                      : Audio Video Interleave\nFile size                        : 697 MiB\nDuration                         : 1h 39mn\nOverall bit rate                 : 979 Kbps\nWriting application              : VirtualDubMod 1.5.10.2 (build 2540/release)\nWriting library                  : VirtualDubMod build 2540/release\n\n-------------------------------------------------------------------------------\n\nVideo\nID                               : 0\nFormat                           : MPEG-4 Visual\nFormat profile                   : Advanced Simple@L5\nFormat settings, BVOP            : 2\nFormat settings, QPel            : No\nFormat settings, GMC             : No warppoints\nFormat settings, Matrix          : Default (H.263)\nMuxing mode                      : Packed bitstream\nCodec ID                         : DX50\nCodec ID/Hint                    : DivX 5\nDuration                         : 1h 39mn\nBit rate                         : 856 Kbps\nWidth                            : 640 pixels\nHeight                           : 272 pixels\nDisplay aspect ratio             : 2.35:1\nFrame rate                       : 29.970 fps\nColor space                      : YUV\nChroma subsampling               : 4:2:0\nBit depth                        : 8 bits\nScan type                        : Progressive\nCompression mode                 : Lossy\nBits/(Pixel*Frame)               : 0.164\nStream size                      : 609 MiB (87%)\nWriting library                  : XviD 1.2.1 (UTC 2008-12-04)\n\n-------------------------------------------------------------------------------\n\nAudio\nID                               : 1\nFormat                           : MPEG Audio\nFormat version                   : Version 1\nFormat profile                   : Layer 3\nMode                             : Joint stereo\nMode extension                   : MS Stereo\nCodec ID                         : 55\nCodec ID/Hint                    : MP3\nDuration                         : 1h 39mn\nBit rate mode                    : Variable\nBit rate                         : 109 Kbps\nMinimum bit rate                 : 32.0 Kbps\nChannel(s)                       : 2 channels\nSampling rate                    : 44.1 KHz\nCompression mode                 : Lossy\nStream size                      : 77.9 MiB (11%)\nAlignment                        : Aligned on interleaves\nInterleave, duration             : 26 ms (0.78 video frame)\nInterleave, preload duration     : 175 ms\nWriting library                  : LAME3.98r\nEncoding settings                : -m j -V 6 -q 2 -lowpass 15.5 --vbr-new -b 32\n\n\n-------------------------------------------------------------------------------\n\nSubtitles\n\nEnglish and Dutch\n","torrent":{"xt":"urn:btih:103dedd3f148c1b11e7ed275b4743e73b2162263","amp;dn":"Election.2005.DVDRip.XviD-VeraCD","amp;tr":["udp%3A%2F%2Ftracker.openbittorrent.com%3A80","udp%3A%2F%2Fopen.demonii.com%3A1337","udp%3A%2F%2Ftracker.coppersurfer.tk%3A6969","udp%3A%2F%2Fexodus.desync.com%3A6969"],"infoHash":"103dedd3f148c1b11e7ed275b4743e73b2162263","infoHashBuffer":{"type":"Buffer","data":[16,61,237,211,241,72,193,177,30,126,210,117,180,116,62,115,178,22,34,99]},"announce":[],"urlList":[]}}